<mxfile host="app.diagrams.net" modified="2023-08-12T12:34:48.750Z" agent="Mozilla/5.0 (Windows NT 10.0; Win64; x64) AppleWebKit/537.36 (KHTML, like Gecko) Chrome/115.0.0.0 Safari/537.36" etag="qbw0ke-k6-5mHuTyyPnw" version="21.6.6" type="device">
  <diagram name="Page-1" id="qJRX1C2xyYfuu3zAj5Xc">
    <mxGraphModel dx="1687" dy="892" grid="1" gridSize="11" guides="1" tooltips="1" connect="1" arrows="1" fold="1" page="1" pageScale="1" pageWidth="1169" pageHeight="827" background="#ffffff" math="0" shadow="0">
      <root>
        <mxCell id="0" />
        <mxCell id="1" parent="0" />
        <mxCell id="yNeKo58Rm4UAZLfO_NbO-1" value="&lt;font style=&quot;font-size: 20px;&quot;&gt;Person&lt;/font&gt;" style="rounded=0;whiteSpace=wrap;html=1;" vertex="1" parent="1">
          <mxGeometry x="506" y="99" width="194" height="55" as="geometry" />
        </mxCell>
        <mxCell id="yNeKo58Rm4UAZLfO_NbO-2" value="&lt;p style=&quot;line-height: 0%;&quot;&gt;&lt;font style=&quot;font-size: 20px;&quot;&gt;&lt;u&gt;person-id&lt;/u&gt;&lt;/font&gt;&lt;/p&gt;" style="ellipse;whiteSpace=wrap;html=1;" vertex="1" parent="1">
          <mxGeometry x="187" y="33" width="162" height="50" as="geometry" />
        </mxCell>
        <mxCell id="yNeKo58Rm4UAZLfO_NbO-4" value="&lt;font style=&quot;font-size: 20px;&quot;&gt;name&lt;/font&gt;" style="ellipse;whiteSpace=wrap;html=1;" vertex="1" parent="1">
          <mxGeometry x="400" y="11" width="86" height="56" as="geometry" />
        </mxCell>
        <mxCell id="yNeKo58Rm4UAZLfO_NbO-6" value="&lt;span style=&quot;font-size: 20px;&quot;&gt;age&lt;/span&gt;" style="ellipse;whiteSpace=wrap;html=1;" vertex="1" parent="1">
          <mxGeometry x="550" y="10" width="95" height="45" as="geometry" />
        </mxCell>
        <mxCell id="yNeKo58Rm4UAZLfO_NbO-7" value="&lt;font style=&quot;font-size: 20px;&quot;&gt;email&lt;/font&gt;" style="ellipse;whiteSpace=wrap;html=1;" vertex="1" parent="1">
          <mxGeometry x="682" y="16.5" width="105" height="45" as="geometry" />
        </mxCell>
        <mxCell id="yNeKo58Rm4UAZLfO_NbO-8" value="&lt;font style=&quot;font-size: 20px;&quot;&gt;admin&lt;/font&gt;" style="ellipse;whiteSpace=wrap;html=1;" vertex="1" parent="1">
          <mxGeometry x="803" y="17" width="95" height="50" as="geometry" />
        </mxCell>
        <mxCell id="yNeKo58Rm4UAZLfO_NbO-9" value="" style="endArrow=none;html=1;rounded=0;entryX=0.645;entryY=0.975;entryDx=0;entryDy=0;entryPerimeter=0;exitX=0;exitY=0.5;exitDx=0;exitDy=0;" edge="1" parent="1" source="yNeKo58Rm4UAZLfO_NbO-1" target="yNeKo58Rm4UAZLfO_NbO-2">
          <mxGeometry width="50" height="50" relative="1" as="geometry">
            <mxPoint x="560" y="290" as="sourcePoint" />
            <mxPoint x="610" y="240" as="targetPoint" />
          </mxGeometry>
        </mxCell>
        <mxCell id="yNeKo58Rm4UAZLfO_NbO-12" value="" style="endArrow=none;html=1;rounded=0;entryX=0.683;entryY=1.013;entryDx=0;entryDy=0;entryPerimeter=0;exitX=0.312;exitY=0.018;exitDx=0;exitDy=0;exitPerimeter=0;" edge="1" parent="1" source="yNeKo58Rm4UAZLfO_NbO-1" target="yNeKo58Rm4UAZLfO_NbO-4">
          <mxGeometry width="50" height="50" relative="1" as="geometry">
            <mxPoint x="560" y="290" as="sourcePoint" />
            <mxPoint x="610" y="240" as="targetPoint" />
          </mxGeometry>
        </mxCell>
        <mxCell id="yNeKo58Rm4UAZLfO_NbO-13" value="" style="endArrow=none;html=1;rounded=0;" edge="1" parent="1" source="yNeKo58Rm4UAZLfO_NbO-1" target="yNeKo58Rm4UAZLfO_NbO-7">
          <mxGeometry width="50" height="50" relative="1" as="geometry">
            <mxPoint x="523" y="232" as="sourcePoint" />
            <mxPoint x="442" y="121" as="targetPoint" />
          </mxGeometry>
        </mxCell>
        <mxCell id="yNeKo58Rm4UAZLfO_NbO-14" value="" style="endArrow=none;html=1;rounded=0;" edge="1" parent="1" source="yNeKo58Rm4UAZLfO_NbO-1" target="yNeKo58Rm4UAZLfO_NbO-6">
          <mxGeometry width="50" height="50" relative="1" as="geometry">
            <mxPoint x="543" y="252" as="sourcePoint" />
            <mxPoint x="462" y="141" as="targetPoint" />
          </mxGeometry>
        </mxCell>
        <mxCell id="yNeKo58Rm4UAZLfO_NbO-15" value="" style="endArrow=none;html=1;rounded=0;" edge="1" parent="1" source="yNeKo58Rm4UAZLfO_NbO-1" target="yNeKo58Rm4UAZLfO_NbO-8">
          <mxGeometry width="50" height="50" relative="1" as="geometry">
            <mxPoint x="637" y="230" as="sourcePoint" />
            <mxPoint x="748" y="114" as="targetPoint" />
          </mxGeometry>
        </mxCell>
        <mxCell id="yNeKo58Rm4UAZLfO_NbO-34" value="" style="shape=link;html=1;rounded=0;exitX=0.5;exitY=1;exitDx=0;exitDy=0;entryX=0.5;entryY=0;entryDx=0;entryDy=0;" edge="1" parent="1" source="yNeKo58Rm4UAZLfO_NbO-1" target="yNeKo58Rm4UAZLfO_NbO-36">
          <mxGeometry relative="1" as="geometry">
            <mxPoint x="315" y="345" as="sourcePoint" />
            <mxPoint x="565" y="420" as="targetPoint" />
          </mxGeometry>
        </mxCell>
        <mxCell id="yNeKo58Rm4UAZLfO_NbO-36" value="&lt;font style=&quot;font-size: 20px;&quot;&gt;U&lt;/font&gt;" style="ellipse;whiteSpace=wrap;html=1;aspect=fixed;" vertex="1" parent="1">
          <mxGeometry x="580.5" y="198" width="45" height="45" as="geometry" />
        </mxCell>
        <mxCell id="yNeKo58Rm4UAZLfO_NbO-41" value="&lt;font style=&quot;font-size: 20px;&quot;&gt;Librarian&lt;/font&gt;" style="rounded=0;whiteSpace=wrap;html=1;" vertex="1" parent="1">
          <mxGeometry x="235" y="374" width="165" height="55" as="geometry" />
        </mxCell>
        <mxCell id="yNeKo58Rm4UAZLfO_NbO-43" value="&lt;font style=&quot;font-size: 20px;&quot;&gt;Member&lt;/font&gt;" style="rounded=0;whiteSpace=wrap;html=1;" vertex="1" parent="1">
          <mxGeometry x="847" y="374" width="165" height="55" as="geometry" />
        </mxCell>
        <mxCell id="yNeKo58Rm4UAZLfO_NbO-44" value="" style="endArrow=none;html=1;rounded=0;entryX=-0.01;entryY=0.788;entryDx=0;entryDy=0;entryPerimeter=0;exitX=0.5;exitY=0;exitDx=0;exitDy=0;" edge="1" parent="1" source="yNeKo58Rm4UAZLfO_NbO-41" target="yNeKo58Rm4UAZLfO_NbO-36">
          <mxGeometry relative="1" as="geometry">
            <mxPoint x="400" y="248" as="sourcePoint" />
            <mxPoint x="543" y="215" as="targetPoint" />
          </mxGeometry>
        </mxCell>
        <mxCell id="yNeKo58Rm4UAZLfO_NbO-45" value="" style="endArrow=none;html=1;rounded=0;entryX=1.062;entryY=0.71;entryDx=0;entryDy=0;entryPerimeter=0;" edge="1" parent="1" source="yNeKo58Rm4UAZLfO_NbO-43" target="yNeKo58Rm4UAZLfO_NbO-36">
          <mxGeometry relative="1" as="geometry">
            <mxPoint x="462" y="429" as="sourcePoint" />
            <mxPoint x="605" y="396" as="targetPoint" />
          </mxGeometry>
        </mxCell>
        <mxCell id="yNeKo58Rm4UAZLfO_NbO-46" value="" style="shape=requiredInterface;html=1;verticalLabelPosition=bottom;sketch=0;direction=west;rotation=-30;" vertex="1" parent="1">
          <mxGeometry x="453" y="281" width="33" height="22" as="geometry" />
        </mxCell>
        <mxCell id="yNeKo58Rm4UAZLfO_NbO-50" value="" style="shape=requiredInterface;html=1;verticalLabelPosition=bottom;sketch=0;direction=west;rotation=-150;" vertex="1" parent="1">
          <mxGeometry x="685" y="261" width="33" height="22" as="geometry" />
        </mxCell>
        <mxCell id="yNeKo58Rm4UAZLfO_NbO-53" value="&lt;font style=&quot;font-size: 20px;&quot;&gt;Book&lt;/font&gt;" style="rounded=0;whiteSpace=wrap;html=1;" vertex="1" parent="1">
          <mxGeometry x="235" y="605" width="165" height="55" as="geometry" />
        </mxCell>
        <mxCell id="yNeKo58Rm4UAZLfO_NbO-54" value="&lt;p style=&quot;line-height: 0%;&quot;&gt;&lt;font style=&quot;font-size: 20px;&quot;&gt;&lt;u&gt;book-id&lt;/u&gt;&lt;/font&gt;&lt;/p&gt;" style="ellipse;whiteSpace=wrap;html=1;" vertex="1" parent="1">
          <mxGeometry x="113" y="712.5" width="162" height="50" as="geometry" />
        </mxCell>
        <mxCell id="yNeKo58Rm4UAZLfO_NbO-55" value="&lt;font style=&quot;font-size: 20px;&quot;&gt;title&lt;/font&gt;" style="ellipse;whiteSpace=wrap;html=1;" vertex="1" parent="1">
          <mxGeometry x="321" y="726" width="86" height="56" as="geometry" />
        </mxCell>
        <mxCell id="yNeKo58Rm4UAZLfO_NbO-56" value="&lt;span style=&quot;font-size: 20px;&quot;&gt;author&lt;/span&gt;" style="ellipse;whiteSpace=wrap;html=1;" vertex="1" parent="1">
          <mxGeometry x="433" y="737" width="95" height="45" as="geometry" />
        </mxCell>
        <mxCell id="yNeKo58Rm4UAZLfO_NbO-59" value="" style="endArrow=none;html=1;rounded=0;entryX=0.668;entryY=0.028;entryDx=0;entryDy=0;entryPerimeter=0;" edge="1" parent="1" source="yNeKo58Rm4UAZLfO_NbO-53" target="yNeKo58Rm4UAZLfO_NbO-54">
          <mxGeometry width="50" height="50" relative="1" as="geometry">
            <mxPoint x="259" y="584" as="sourcePoint" />
            <mxPoint x="44" y="539" as="targetPoint" />
          </mxGeometry>
        </mxCell>
        <mxCell id="yNeKo58Rm4UAZLfO_NbO-60" value="&lt;font style=&quot;font-size: 20px;&quot;&gt;Category&lt;/font&gt;" style="ellipse;shape=doubleEllipse;margin=3;whiteSpace=wrap;html=1;align=center;" vertex="1" parent="1">
          <mxGeometry x="560" y="728.5" width="155" height="62" as="geometry" />
        </mxCell>
        <mxCell id="yNeKo58Rm4UAZLfO_NbO-61" value="" style="endArrow=none;html=1;rounded=0;" edge="1" parent="1" source="yNeKo58Rm4UAZLfO_NbO-53" target="yNeKo58Rm4UAZLfO_NbO-55">
          <mxGeometry width="50" height="50" relative="1" as="geometry">
            <mxPoint x="353" y="671" as="sourcePoint" />
            <mxPoint x="232" y="725" as="targetPoint" />
          </mxGeometry>
        </mxCell>
        <mxCell id="yNeKo58Rm4UAZLfO_NbO-62" value="" style="endArrow=none;html=1;rounded=0;entryX=0.409;entryY=0.035;entryDx=0;entryDy=0;entryPerimeter=0;exitX=0.836;exitY=0.996;exitDx=0;exitDy=0;exitPerimeter=0;" edge="1" parent="1" source="yNeKo58Rm4UAZLfO_NbO-53" target="yNeKo58Rm4UAZLfO_NbO-56">
          <mxGeometry width="50" height="50" relative="1" as="geometry">
            <mxPoint x="364" y="682" as="sourcePoint" />
            <mxPoint x="243" y="736" as="targetPoint" />
          </mxGeometry>
        </mxCell>
        <mxCell id="yNeKo58Rm4UAZLfO_NbO-63" value="" style="endArrow=none;html=1;rounded=0;exitX=1;exitY=1;exitDx=0;exitDy=0;" edge="1" parent="1" source="yNeKo58Rm4UAZLfO_NbO-53" target="yNeKo58Rm4UAZLfO_NbO-60">
          <mxGeometry width="50" height="50" relative="1" as="geometry">
            <mxPoint x="375" y="693" as="sourcePoint" />
            <mxPoint x="254" y="747" as="targetPoint" />
          </mxGeometry>
        </mxCell>
        <mxCell id="yNeKo58Rm4UAZLfO_NbO-64" value="&lt;font style=&quot;font-size: 20px;&quot;&gt;Borrow&lt;/font&gt;" style="shape=rhombus;perimeter=rhombusPerimeter;whiteSpace=wrap;html=1;align=center;" vertex="1" parent="1">
          <mxGeometry x="852.5" y="577.5" width="154" height="110" as="geometry" />
        </mxCell>
        <mxCell id="yNeKo58Rm4UAZLfO_NbO-65" value="" style="endArrow=none;html=1;rounded=0;entryX=1;entryY=0.5;entryDx=0;entryDy=0;exitX=0;exitY=0.5;exitDx=0;exitDy=0;" edge="1" parent="1" source="yNeKo58Rm4UAZLfO_NbO-64" target="yNeKo58Rm4UAZLfO_NbO-53">
          <mxGeometry width="50" height="50" relative="1" as="geometry">
            <mxPoint x="698" y="583" as="sourcePoint" />
            <mxPoint x="577" y="637" as="targetPoint" />
          </mxGeometry>
        </mxCell>
        <mxCell id="yNeKo58Rm4UAZLfO_NbO-66" value="" style="endArrow=none;html=1;rounded=0;entryX=0.5;entryY=0;entryDx=0;entryDy=0;exitX=0.5;exitY=1;exitDx=0;exitDy=0;" edge="1" parent="1" source="yNeKo58Rm4UAZLfO_NbO-43" target="yNeKo58Rm4UAZLfO_NbO-64">
          <mxGeometry width="50" height="50" relative="1" as="geometry">
            <mxPoint x="880" y="374" as="sourcePoint" />
            <mxPoint x="759" y="428" as="targetPoint" />
          </mxGeometry>
        </mxCell>
        <mxCell id="yNeKo58Rm4UAZLfO_NbO-67" value="&lt;font style=&quot;font-size: 20px;&quot;&gt;1&lt;/font&gt;" style="text;html=1;align=center;verticalAlign=middle;resizable=0;points=[];autosize=1;strokeColor=none;fillColor=none;" vertex="1" parent="1">
          <mxGeometry x="898" y="544.5" width="33" height="33" as="geometry" />
        </mxCell>
        <mxCell id="yNeKo58Rm4UAZLfO_NbO-68" value="&lt;font style=&quot;font-size: 20px;&quot;&gt;M&lt;/font&gt;" style="text;html=1;align=center;verticalAlign=middle;resizable=0;points=[];autosize=1;strokeColor=none;fillColor=none;" vertex="1" parent="1">
          <mxGeometry x="808.5" y="605" width="44" height="33" as="geometry" />
        </mxCell>
        <mxCell id="yNeKo58Rm4UAZLfO_NbO-70" value="&lt;font style=&quot;font-size: 20px;&quot;&gt;Manage&lt;/font&gt;" style="shape=rhombus;perimeter=rhombusPerimeter;whiteSpace=wrap;html=1;align=center;" vertex="1" parent="1">
          <mxGeometry x="545.5" y="363" width="169.5" height="77" as="geometry" />
        </mxCell>
        <mxCell id="yNeKo58Rm4UAZLfO_NbO-71" value="" style="endArrow=none;html=1;rounded=0;entryX=1;entryY=0.5;entryDx=0;entryDy=0;" edge="1" parent="1" source="yNeKo58Rm4UAZLfO_NbO-70" target="yNeKo58Rm4UAZLfO_NbO-41">
          <mxGeometry width="50" height="50" relative="1" as="geometry">
            <mxPoint x="781" y="528" as="sourcePoint" />
            <mxPoint x="414" y="528" as="targetPoint" />
          </mxGeometry>
        </mxCell>
        <mxCell id="yNeKo58Rm4UAZLfO_NbO-72" value="" style="endArrow=none;html=1;rounded=0;entryX=1;entryY=0.5;entryDx=0;entryDy=0;" edge="1" parent="1" source="yNeKo58Rm4UAZLfO_NbO-43" target="yNeKo58Rm4UAZLfO_NbO-70">
          <mxGeometry width="50" height="50" relative="1" as="geometry">
            <mxPoint x="557" y="413" as="sourcePoint" />
            <mxPoint x="411" y="413" as="targetPoint" />
          </mxGeometry>
        </mxCell>
        <mxCell id="yNeKo58Rm4UAZLfO_NbO-73" value="&lt;font style=&quot;font-size: 20px;&quot;&gt;M&lt;/font&gt;" style="text;html=1;align=center;verticalAlign=middle;resizable=0;points=[];autosize=1;strokeColor=none;fillColor=none;" vertex="1" parent="1">
          <mxGeometry x="712.5" y="374" width="44" height="33" as="geometry" />
        </mxCell>
        <mxCell id="yNeKo58Rm4UAZLfO_NbO-74" value="&lt;font style=&quot;font-size: 20px;&quot;&gt;M&lt;/font&gt;" style="text;html=1;align=center;verticalAlign=middle;resizable=0;points=[];autosize=1;strokeColor=none;fillColor=none;" vertex="1" parent="1">
          <mxGeometry x="308" y="550" width="44" height="33" as="geometry" />
        </mxCell>
        <mxCell id="yNeKo58Rm4UAZLfO_NbO-75" value="&lt;font style=&quot;font-size: 20px;&quot;&gt;1&lt;/font&gt;" style="text;html=1;align=center;verticalAlign=middle;resizable=0;points=[];autosize=1;strokeColor=none;fillColor=none;" vertex="1" parent="1">
          <mxGeometry x="517" y="374" width="33" height="33" as="geometry" />
        </mxCell>
        <mxCell id="yNeKo58Rm4UAZLfO_NbO-76" value="&lt;font style=&quot;font-size: 20px;&quot;&gt;Manage&lt;/font&gt;" style="shape=rhombus;perimeter=rhombusPerimeter;whiteSpace=wrap;html=1;align=center;" vertex="1" parent="1">
          <mxGeometry x="235" y="473" width="165" height="77" as="geometry" />
        </mxCell>
        <mxCell id="yNeKo58Rm4UAZLfO_NbO-77" value="" style="endArrow=none;html=1;rounded=0;entryX=0.5;entryY=1;entryDx=0;entryDy=0;exitX=0.5;exitY=0;exitDx=0;exitDy=0;" edge="1" parent="1" source="yNeKo58Rm4UAZLfO_NbO-53" target="yNeKo58Rm4UAZLfO_NbO-76">
          <mxGeometry width="50" height="50" relative="1" as="geometry">
            <mxPoint x="374" y="583" as="sourcePoint" />
            <mxPoint x="497" y="644" as="targetPoint" />
          </mxGeometry>
        </mxCell>
        <mxCell id="yNeKo58Rm4UAZLfO_NbO-78" value="" style="endArrow=none;html=1;rounded=0;entryX=0.5;entryY=1;entryDx=0;entryDy=0;" edge="1" parent="1" source="yNeKo58Rm4UAZLfO_NbO-76" target="yNeKo58Rm4UAZLfO_NbO-41">
          <mxGeometry width="50" height="50" relative="1" as="geometry">
            <mxPoint x="875" y="655" as="sourcePoint" />
            <mxPoint x="264" y="462" as="targetPoint" />
          </mxGeometry>
        </mxCell>
        <mxCell id="yNeKo58Rm4UAZLfO_NbO-79" value="&lt;font style=&quot;font-size: 20px;&quot;&gt;1&lt;/font&gt;" style="text;html=1;align=center;verticalAlign=middle;resizable=0;points=[];autosize=1;strokeColor=none;fillColor=none;" vertex="1" parent="1">
          <mxGeometry x="313.5" y="440" width="33" height="33" as="geometry" />
        </mxCell>
      </root>
    </mxGraphModel>
  </diagram>
</mxfile>
